<?xml version="1.0" standalone="no"?>
<!DOCTYPE svg PUBLIC "-//W3C//DTD SVG 20010904//EN"
 "http://www.w3.org/TR/2001/REC-SVG-20010904/DTD/svg10.dtd">
<svg version="1.0" xmlns="http://www.w3.org/2000/svg"
 width="256.000000pt" height="256.000000pt" viewBox="0 0 256.000000 256.000000"
 preserveAspectRatio="xMidYMid meet">

<g transform="translate(0.000000,256.000000) scale(0.100000,-0.100000)"
fill="#000000" stroke="none">
<path d="M1467 2523 c-33 -8 -39 -48 -15 -98 26 -53 41 -49 31 7 -5 34 -4 40
9 36 8 -4 138 -98 289 -210 l274 -205 73 -244 c66 -223 72 -252 72 -331 l0
-88 -28 0 c-16 0 -54 9 -85 19 -250 86 -609 60 -674 -49 -14 -25 -21 -28 -47
-22 -40 9 -121 9 -166 0 -32 -7 -37 -4 -55 24 -26 40 -74 65 -166 84 -143 30
-345 16 -496 -35 -34 -12 -76 -21 -93 -21 l-30 0 0 81 c0 73 8 107 71 311 39
127 75 240 80 252 9 18 60 34 337 109 180 48 333 87 340 87 9 0 12 -25 12 -90
l0 -90 120 0 120 0 0 30 0 30 -100 0 -100 0 0 73 c0 78 -9 97 -48 97 -26 0
-668 -168 -694 -181 -27 -15 -41 -47 -119 -294 l-73 -230 -4 -152 -4 -152 34
-3 c31 -3 34 -7 45 -52 22 -87 79 -193 133 -246 57 -56 165 -112 251 -130 139
-30 289 9 346 90 16 22 33 40 40 40 33 0 81 109 69 156 -7 25 -31 32 -39 12
-3 -8 -6 -6 -6 5 -2 48 201 58 216 11 2 -7 -4 -11 -14 -10 -44 3 -11 -153 35
-169 9 -3 29 -23 44 -44 77 -113 302 -134 485 -45 89 43 148 105 198 208 24
50 47 108 51 129 3 20 9 39 13 41 3 2 5 -216 3 -485 l-2 -489 -24 -15 c-20
-14 -128 -15 -905 -13 -861 3 -883 3 -897 22 -12 17 -14 101 -14 498 l0 478
-30 0 -30 0 0 -462 c0 -300 4 -477 11 -502 6 -21 21 -49 34 -62 l24 -24 908 0
c1014 0 938 -6 968 72 14 38 15 112 13 673 l-3 630 -68 220 c-38 121 -73 234
-78 252 -8 26 -62 70 -292 241 -256 190 -320 234 -329 231 -2 -1 -11 -3 -21
-6z m-796 -1179 c21 -14 50 -44 64 -66 107 -161 -68 -281 -227 -156 -44 33
-47 29 -16 -20 12 -20 16 -32 10 -28 -19 12 -61 100 -68 145 -10 62 1 88 46
111 40 20 98 37 134 39 11 1 37 -11 57 -25z m889 12 c0 -2 -7 -17 -15 -32 -19
-36 -19 -63 0 -88 8 -11 15 -38 15 -61 0 -44 -24 -76 -67 -90 -13 -3 -23 -14
-24 -23 -1 -46 -21 43 -26 118 -7 101 9 143 60 165 31 14 57 19 57 11z m-443
-188 c-2 -13 -4 -3 -4 22 0 25 2 35 4 23 2 -13 2 -33 0 -45z m994 -5 c-12 -20
-14 -14 -5 12 4 9 9 14 11 11 3 -2 0 -13 -6 -23z m-1004 -65 c-3 -8 -6 -5 -6
6 -1 11 2 17 5 13 3 -3 4 -12 1 -19z m973 3 c-5 -11 -15 -23 -21 -27 -6 -3 -3
5 6 20 20 30 30 35 15 7z m-683 -23 c-3 -8 -6 -5 -6 6 -1 11 2 17 5 13 3 -3 4
-12 1 -19z"/>
<path d="M2005 1634 c4 -26 8 -51 11 -56 3 -4 28 -8 55 -8 48 0 50 1 44 23 -9
28 -10 29 -68 62 l-47 27 5 -48z"/>
<path d="M735 1649 c-55 -10 -141 -26 -192 -35 -55 -10 -94 -22 -97 -30 -4
-12 45 -14 287 -14 161 0 297 4 302 8 26 19 44 75 27 86 -4 2 -57 -6 -118 -18
-85 -17 -111 -20 -111 -10 0 7 4 11 8 9 4 -3 9 2 13 10 6 18 8 18 -119 -6z"/>
</g>
</svg>
